<svg width="241" height="361" viewBox="0 0 241 361" fill="none" xmlns="http://www.w3.org/2000/svg">
<g clip-path="url(#clip0_1_2)">
<path d="M200.25 0.25H40.25C18.1586 0.25 0.25 18.1586 0.25 40.25V320.25C0.25 342.341 18.1586 360.25 40.25 360.25H200.25C222.341 360.25 240.25 342.341 240.25 320.25V40.25C240.25 18.1586 222.341 0.25 200.25 0.25Z" fill="white" stroke="black" stroke-width="0.5"/>
<path d="M200.25 20.25H40.25C29.2043 20.25 20.25 29.2043 20.25 40.25V320.25C20.25 331.296 29.2043 340.25 40.25 340.25H200.25C211.296 340.25 220.25 331.296 220.25 320.25V40.25C220.25 29.2043 211.296 20.25 200.25 20.25Z" fill="#171D17"/>
<path d="M180.25 80.25C159.239 80.25 138.433 84.3885 119.021 92.4293C99.6086 100.47 81.9703 112.256 67.1129 127.113C37.1071 157.119 20.25 197.815 20.25 240.25C20.25 250.859 24.4643 261.033 31.9657 268.534C39.4672 276.036 49.6413 280.25 60.25 280.25C81.2615 280.25 102.067 276.111 121.479 268.071C140.891 260.03 158.53 248.244 173.387 233.387C188.244 218.53 200.03 200.891 208.071 181.479C216.111 162.067 220.25 141.261 220.25 120.25C220.25 109.641 216.036 99.4672 208.534 91.9657C201.033 84.4643 190.859 80.25 180.25 80.25Z" fill="#FF0000"/>
<path d="M35.3698 220.09L44.1857 211.005L73.076 239.476C79.7046 246.007 85.7223 247.378 91.2689 243.608C95.0346 240.294 96.6605 236.957 96.1666 233.456C95.8118 230.476 93.398 226.911 89.3451 222.824L60.7144 194.534L69.5303 185.45L98.4207 213.92C105.668 221.113 108.976 227.879 108.465 234.378C108.035 239.817 105.687 244.693 101.479 249.085C96.5305 254.157 91.4055 256.988 86.0244 257.639C78.623 258.426 71.468 255.533 64.7197 248.841L35.3698 220.09Z" fill="#F2F929"/>
<path d="M124.683 224.006L77.105 177.043L86.9428 166.82L137.139 180.368L104.815 148.471L113.631 139.386L161.209 186.35L152.213 195.694L100.556 182.364L133.639 214.942L124.683 224.006Z" fill="#F2F929"/>
<path d="M144.782 155.681C138.154 149.149 134.307 141.663 133.182 133.141C132.277 124.079 134.871 116.524 140.922 110.254C147.133 103.865 154.398 101.058 162.656 101.752C171.455 102.667 179.328 106.521 186.196 113.373C193.264 120.325 197.13 128.172 197.715 136.973C198.221 144.834 195.409 151.929 189.438 158.139C183.387 164.408 176.262 167.236 167.963 166.821C159.584 166.467 151.83 162.773 144.782 155.681ZM152.044 143.514C158.332 150.424 164.465 154.455 170.502 155.686C175.221 156.654 179.403 155.401 182.849 151.827C185.714 148.812 187.021 145.215 186.548 141.074C185.837 135.612 183.167 130.368 178.655 125.5C172.506 119.109 166.933 115.159 161.895 113.931C155.898 112.42 151.276 113.252 148.171 116.447C144.484 120.2 143.196 124.658 144.307 129.82C145.339 134.542 147.971 139.066 152.044 143.514Z" fill="#F2F929"/>
</g>
<defs>
<clipPath id="clip0_1_2">
<rect width="240.5" height="360.5" fill="white"/>
</clipPath>
</defs>
</svg>
